<?xml version="1.0" standalone="no"?>
<!DOCTYPE svg PUBLIC "-//W3C//DTD SVG 20010904//EN"
 "http://www.w3.org/TR/2001/REC-SVG-20010904/DTD/svg10.dtd">
<svg version="1.0" xmlns="http://www.w3.org/2000/svg"
 width="980.000000pt" height="980.000000pt" viewBox="0 0 980.000000 980.000000"
 preserveAspectRatio="xMidYMid meet">
 <style>
  @media (prefers-color-scheme: dark) {
    g {
        fill: #F9F6EE;
    }
  }
</style>

<g transform="translate(0.000000,980.000000) scale(0.100000,-0.100000)" stroke="none">
<path d="M4710 9785 c-515 -85 -920 -481 -1015 -994 -20 -110 -19 -303 5
-1605 11 -577 17 -1053 14 -1057 -3 -5 -594 -9 -1314 -9 -1249 0 -1314 -1
-1407 -19 -645 -126 -1076 -736 -978 -1384 77 -509 470 -919 978 -1018 79 -15
142 -19 330 -19 246 0 1731 25 2150 35 l248 7 -6 -209 c-7 -266 -35 -1885 -37
-2188 -1 -181 2 -249 15 -317 100 -509 472 -881 992 -989 80 -17 332 -17 425
0 247 44 469 161 650 341 141 140 239 297 300 478 62 185 60 138 60 1574 l0
1309 268 -6 c565 -13 1867 -35 2087 -35 246 0 304 6 442 45 326 93 613 338
763 650 80 168 114 323 114 525 0 159 -10 227 -54 370 -130 425 -510 759 -948
835 -72 13 -285 15 -1373 15 l-1288 0 -4 1298 c-4 1274 -4 1299 -25 1392 -110
499 -466 858 -957 965 -100 22 -330 28 -435 10z"/>
</g>
</svg>
