<?xml version="1.0" standalone="no"?>
<!DOCTYPE svg PUBLIC "-//W3C//DTD SVG 20010904//EN"
 "http://www.w3.org/TR/2001/REC-SVG-20010904/DTD/svg10.dtd">
<svg version="1.0" xmlns="http://www.w3.org/2000/svg"
 width="438.000000pt" height="438.000000pt" viewBox="0 0 438.000000 438.000000"
 preserveAspectRatio="xMidYMid meet">
 <style>
  @media (prefers-color-scheme: dark) {
    g {
        fill: #F9F6EE;
    }
  }
</style>

<g transform="translate(0.000000,438.000000) scale(0.100000,-0.100000)" stroke="none">
<path fill="#4CAF50" d="M2025 4374 c-161 -19 -225 -29 -315 -50 -105 -24 -290 -82 -290 -90
0 -2 21 -30 46 -61 25 -31 52 -70 61 -87 l15 -32 111 32 c62 17 155 39 207 49
127 23 408 31 540 16 676 -77 1256 -485 1555 -1094 213 -434 259 -906 134
-1377 -241 -907 -1119 -1529 -2048 -1452 -1036 87 -1821 932 -1821 1962 0 316
69 605 211 886 l60 118 -49 46 c-26 25 -60 61 -75 80 -26 34 -27 34 -42 15
-37 -48 -178 -351 -214 -462 -179 -542 -139 -1124 113 -1638 118 -240 245
-416 434 -603 335 -331 759 -538 1242 -608 144 -21 432 -21 585 1 368 51 710
192 1015 418 122 90 346 315 436 437 228 309 365 641 419 1015 22 152 22 438
1 585 -69 482 -277 906 -608 1242 -187 189 -363 316 -603 434 -240 118 -486
188 -749 213 -102 10 -301 13 -371 5z"/>
<path fill="#b38035" d="M853 4169 c-211 -26 -382 -223 -383 -439 0 -123 49 -238 140 -324 64
-61 114 -90 197 -111 153 -40 310 3 424 115 305 301 51 811 -378 759z"/>
<path fill="#1667e3" d="M2050 3234 c-163 -31 -275 -70 -390 -138 -231 -136 -409 -372 -476
-631 -178 -696 381 -1357 1096 -1294 194 17 379 89 537 208 384 290 517 822
314 1257 -108 229 -309 426 -534 521 -131 55 -223 74 -382 78 -77 2 -151 1
-165 -1z"/>
</g>
</svg>
