<?xml version="1.0" standalone="no"?>
<!DOCTYPE svg PUBLIC "-//W3C//DTD SVG 20010904//EN"
 "http://www.w3.org/TR/2001/REC-SVG-20010904/DTD/svg10.dtd">
<svg version="1.0" xmlns="http://www.w3.org/2000/svg"
 width="200.000000pt" height="200.000000pt" viewBox="0 0 200.000000 200.000000"
 preserveAspectRatio="xMidYMid meet">
 <style>
  @media (prefers-color-scheme: dark) {
    g {
        fill: #F9F6EE;
    }
  }
</style>

<g transform="translate(0.000000,200.000000) scale(0.100000,-0.100000)" stroke="none">
<path d="M904 1401 c-18 -11 -43 -34 -57 -53 -43 -58 -51 -101 -49 -262 2 -81
0 -157 -4 -168 -3 -11 -25 -28 -49 -38 -49 -21 -89 -68 -111 -132 -26 -78 3
-115 113 -146 75 -21 428 -24 515 -4 68 16 119 48 132 84 20 56 -52 176 -118
198 -50 16 -57 43 -54 220 3 152 3 156 -25 213 -40 80 -87 107 -188 107 -55 0
-82 -5 -105 -19z m146 -206 c61 -31 116 -52 125 -49 42 17 -1 -83 -73 -167
-63 -73 -146 -61 -202 28 -16 27 -34 54 -40 60 -23 27 -29 61 -15 79 8 11 15
26 15 35 0 25 39 69 61 69 11 0 69 -25 129 -55z m-55 -300 c21 -4 44 1 76 17
l46 24 17 -24 c20 -26 12 -44 -33 -66 -68 -35 -149 -27 -207 19 l-29 23 24 26
c23 25 24 25 50 6 14 -10 40 -21 56 -25z"/>
<path d="M340 1312 c-44 -22 -80 -75 -80 -118 0 -18 -5 -36 -11 -40 -29 -18
16 -117 84 -186 29 -30 46 -38 73 -38 64 0 90 22 158 134 15 23 17 40 11 95
-9 91 -28 126 -79 151 -52 25 -110 26 -156 2z m163 -125 c11 -2 28 -20 39 -39
l21 -36 -37 -61 c-21 -33 -47 -68 -59 -76 -49 -34 -120 -8 -153 58 -9 17 -23
37 -30 45 -17 17 -18 36 -1 65 29 53 33 54 120 51 45 -2 90 -5 100 -7z"/>
<path d="M1510 1307 c-64 -42 -75 -75 -76 -227 0 -139 -6 -170 -30 -170 -8 0
-23 -5 -33 -12 -18 -11 -17 -14 14 -60 19 -26 39 -73 46 -103 l12 -54 55 -7
c78 -10 257 2 318 20 67 21 88 45 80 89 -9 49 -45 99 -86 119 -19 10 -38 27
-42 39 -5 12 -7 74 -6 138 3 107 1 120 -22 166 -30 60 -72 85 -146 85 -36 0
-61 -6 -84 -23z m212 -195 c21 5 20 -27 -2 -52 -11 -12 -20 -27 -20 -31 0 -5
-14 -24 -31 -44 -25 -28 -38 -35 -68 -35 -45 0 -70 20 -110 86 -31 52 -39 84
-21 84 6 0 10 9 10 19 0 11 12 29 26 40 l26 20 89 -44 c49 -25 94 -44 101 -43z
m-178 -177 c25 -19 85 -19 110 0 17 13 22 13 38 -2 17 -15 17 -18 2 -34 -40
-44 -127 -48 -178 -8 -22 17 -24 23 -13 40 14 23 16 23 41 4z"/>
<path d="M210 920 c-60 -14 -120 -108 -106 -166 16 -62 234 -101 434 -78 50 7
52 8 52 38 0 36 39 125 63 145 36 29 9 53 -75 66 l-44 7 -44 -57 c-36 -46 -45
-53 -52 -40 -5 9 -6 29 -3 45 6 27 4 30 -20 30 -21 0 -25 -4 -24 -22 1 -13 1
-34 1 -47 l-2 -24 -25 23 c-13 13 -35 38 -47 56 -24 36 -41 39 -108 24z"/>
</g>
</svg>
